/* XPM */
static char * lbBlack_xpm[] = {
"32 32 12 1",
" 	c None",
".	c #CCCCCC",
"+	c #858585",
"@	c #4C4C4C",
"#	c #222222",
"$	c #090909",
"%	c #000000",
"&	c #6D6D6D",
"*	c #121212",
"=	c #A5A5A5",
"-	c #2A2A2A",
";	c #959595",
"................................",
"................................",
"................................",
"................................",
"...........+@#$%$#@+............",
".........&*%%%%%%%%%*&..........",
".......=-%%%%%%%%%%%%%-=........",
"......;$%%%%%%%%%%%%%%%$;.......",
".....=$%%%%%%%%%%%%%%%%%$=......",
".....-%%%%%%%%%%%%%%%%%%%-......",
"....&%%%%%%%%%%%%%%%%%%%%%&.....",
"....*%%%%%%%%%%%%%%%%%%%%%*.....",
"...+%%%%%%%%%%%%%%%%%%%%%%%+....",
"...@%%%%%%%%%%%%%%%%%%%%%%%@....",
"...#%%%%%%%%%%%%%%%%%%%%%%%#....",
"...$%%%%%%%%%%%%%%%%%%%%%%%$....",
"...%%%%%%%%%%%%%%%%%%%%%%%%%....",
"...$%%%%%%%%%%%%%%%%%%%%%%%$....",
"...#%%%%%%%%%%%%%%%%%%%%%%%#....",
"...@%%%%%%%%%%%%%%%%%%%%%%%@....",
"...+%%%%%%%%%%%%%%%%%%%%%%%+....",
"....*%%%%%%%%%%%%%%%%%%%%%*.....",
"....&%%%%%%%%%%%%%%%%%%%%%&.....",
".....-%%%%%%%%%%%%%%%%%%%-......",
".....=$%%%%%%%%%%%%%%%%%$=......",
"......;$%%%%%%%%%%%%%%%$;.......",
".......=-%%%%%%%%%%%%%-=........",
".........&*%%%%%%%%%*&..........",
"...........+@#$%$#@+............",
"................................",
"................................",
"................................"};
