/* XPM */
static char * lbBomb_xpm[] = {
"160 32 86 1",
" 	c None",
".	c #CCCCCC",
"+	c #DEDE85",
"@	c #ECEC4C",
"#	c #F6F622",
"$	c #FDFD09",
"%	c #FFFF00",
"&	c #DDBA8A",
"*	c #EBAA4E",
"=	c #F69E23",
"-	c #FD970A",
";	c #FF9400",
">	c #9B9B9B",
",	c #5F5F5F",
"'	c #313131",
")	c #121212",
"!	c #020202",
"~	c #85DE85",
"{	c #4CEC4C",
"]	c #22F622",
"^	c #09FD09",
"/	c #00FF00",
"(	c #E4E46D",
"_	c #FBFB12",
":	c #E1B577",
"<	c #F99B1A",
"[	c #CEC5C5",
"}	c #DF8080",
"|	c #ED4949",
"1	c #F72121",
"2	c #FD0909",
"3	c #FF0000",
"4	c #868686",
"5	c #2A2A2A",
"6	c #000000",
"7	c #6DE46D",
"8	c #12FB12",
"9	c #D6D6A5",
"0	c #F4F42A",
"a	c #D1C6B6",
"b	c #F1A43A",
"c	c #CDC6C6",
"d	c #E76262",
"e	c #BDBDBD",
"f	c #434343",
"g	c #A5D6A5",
"h	c #2AF42A",
"i	c #DADA95",
"j	c #D5C3AA",
"k	c #F89C1C",
"l	c #DA9393",
"m	c #F81B1B",
"n	c #AAAAAA",
"o	c #1F1F1F",
"p	c #95DA95",
"q	c #D0C8BD",
"r	c #F79D1F",
"s	c #DF7F7F",
"t	c #B6B6B6",
"u	c #1C1C1C",
"v	c #EEA643",
"w	c #DC8D8D",
"x	c #3A3A3A",
"y	c #DEB986",
"z	c #D0BABA",
"A	c #FB1111",
"B	c #777777",
"C	c #F59F2A",
"D	c #EA5252",
"E	c #1A1A1A",
"F	c #D8BF9B",
"G	c #D2B4B4",
"H	c #8A8A8A",
"I	c #E7AE5F",
"J	c #E36F6F",
"K	c #4E4E4E",
"L	c #950000",
"M	c #F20000",
"N	c #F3A131",
"O	c #F13A3A",
"P	c #232323",
"Q	c #FB9912",
"R	c #FA1515",
"S	c #0A0A0A",
"T	c #FE9502",
"U	c #FE0202",
"................................................................................................................................................................",
"................................................................................................................................................................",
"................................................................................................................................................................",
"...........................................+@#$%$#@+.......................&*=-;-=*&.......................................................>,')!!)',>...........",
"...........~{]^/^]{~.....................(_%%%%%%%%%_(...................:<;;;;;;;;;<:....................[}|12321|}[....................45666666666654.........",
".........78/////////87.................90%%%%%%%%%%%%%09...............ab;;;;;;;;;;;;;ba................cd23333333332dc................ef66666666666666fe.......",
".......gh/////////////hg..............i$%%%%%%%%%%%%%%%$i.............jk;;;;;;;;;;;;;;;kj..............lm3333333333333ml..............no6666666666666666on......",
"......p^///////////////^p............9$%%%%%%%%%%%%%%%%%$9...........qr;;;;;;;;;;;;;;;;;rq............s33333333333333333s............tu666666666666666666ut.....",
".....g^/////////////////^g...........0%%%%%%%%%%%%%%%%%%%0...........v;;;;;;;;;;;;;;;;;;;v...........w3333333333333333333w...........x66666666666666666666x.....",
".....h///////////////////h..........(%%%%%%%%%%%%%%%%%%%%%(.........y;;;;;;;;;;;;;;;;;;;;;y.........zA3333333333333333333Az.........B6666666666666666666666B....",
"....7/////////////////////7........._%%%%%%%%%%%%%%%%%%%%%_.........C;;;;;;;;;;;;;;;;;;;;;C.........D333333333333333333333D.........E6666666666666666666666E....",
"....8/////////////////////8........+%%%%%%%%%%%%%%%%%%%%%%%+.......F;;;;;;;;;;;;;;;;;;;;;;;F.......G33333333333333333333333G.......H666666666666666666666666H...",
"...~///////////////////////~.......@%%%%%%%%%%%%%%%%%%%%%%%@.......I;;;;;;;;;;;;;;;;;;;;;;;I.......J33333333333333333333333J.......K6666666666LMML6666666666K...",
"...{///////////////////////{.......#%%%%%%%%%%%%%%%%%%%%%%%#.......N;;;;;;;;;;;;;;;;;;;;;;;N.......O33333333333333333333333O.......P666666666L3333L666666666P...",
"...]///////////////////////].......$%%%%%%%%%%%%%%%%%%%%%%%$.......Q;;;;;;;;;;;;;;;;;;;;;;;Q.......R33333333333333333333333R.......S666666666M3333M666666666S...",
"...^///////////////////////^.......%%%%%%%%%%%%%%%%%%%%%%%%%.......T;;;;;;;;;;;;;;;;;;;;;;;T.......U33333333333333333333333U.......6666666666M3333M6666666666...",
".../////////////////////////.......$%%%%%%%%%%%%%%%%%%%%%%%$.......T;;;;;;;;;;;;;;;;;;;;;;;T.......U33333333333333333333333U.......S666666666L3333L666666666S...",
"...^///////////////////////^.......#%%%%%%%%%%%%%%%%%%%%%%%#.......Q;;;;;;;;;;;;;;;;;;;;;;;Q.......R33333333333333333333333R.......P6666666666LMML6666666666P...",
"...]///////////////////////].......@%%%%%%%%%%%%%%%%%%%%%%%@.......N;;;;;;;;;;;;;;;;;;;;;;;N.......O33333333333333333333333O.......K666666666666666666666666K...",
"...{///////////////////////{.......+%%%%%%%%%%%%%%%%%%%%%%%+.......I;;;;;;;;;;;;;;;;;;;;;;;I.......J33333333333333333333333J.......H666666666666666666666666H...",
"...~///////////////////////~........_%%%%%%%%%%%%%%%%%%%%%_........F;;;;;;;;;;;;;;;;;;;;;;;F.......G33333333333333333333333G........E6666666666666666666666E....",
"....8/////////////////////8.........(%%%%%%%%%%%%%%%%%%%%%(.........C;;;;;;;;;;;;;;;;;;;;;C.........D333333333333333333333D.........B6666666666666666666666B....",
"....7/////////////////////7..........0%%%%%%%%%%%%%%%%%%%0..........y;;;;;;;;;;;;;;;;;;;;;y.........zA3333333333333333333Az..........x66666666666666666666x.....",
".....h///////////////////h...........9$%%%%%%%%%%%%%%%%%$9...........v;;;;;;;;;;;;;;;;;;;v...........w3333333333333333333w...........tu666666666666666666ut.....",
".....g^/////////////////^g............i$%%%%%%%%%%%%%%%$i............qr;;;;;;;;;;;;;;;;;rq............s33333333333333333s.............no6666666666666666on......",
"......p^///////////////^p..............90%%%%%%%%%%%%%09..............jk;;;;;;;;;;;;;;;kj..............lm3333333333333ml...............ef66666666666666fe.......",
".......gh/////////////hg.................(_%%%%%%%%%_(.................ab;;;;;;;;;;;;;ba................cd23333333332dc..................45666666666654.........",
".........78/////////87.....................+@#$%$#@+.....................:<;;;;;;;;;<:....................[}|12321|}[......................>,')!!)',>...........",
"...........~{]^/^]{~.......................................................&*=-;-=*&............................................................................",
"................................................................................................................................................................",
"................................................................................................................................................................",
"................................................................................................................................................................"};
