/* XPM */
static char * ltCannon_xpm[] = {
"64 160 3 1",
" 	c #000000",
".	c #FC54FC",
"+	c #54FCFC",
"                                                                ",
"                                                                ",
"                                                                ",
"                                                                ",
"                                                                ",
"                                                                ",
"                                                                ",
"                                                                ",
"                                                                ",
"                                                                ",
"              +                                                 ",
"             +++                                                ",
"            +++++                                               ",
"           +++++++                                              ",
"          +++++++++                                             ",
"         +++++++++++                                            ",
"        +++++++++++++                                           ",
"       +++++++++++++++                                          ",
"      +++++++++++++++++ ................                        ",
"     +++++++++++++++++++................                        ",
"      ++++++++++++++++++................                        ",
"       +++++++++++++++++................                        ",
"        ++++++++..............................                  ",
"         +++++++..............................                  ",
"          ++++++..............................                  ",
"           +++++..............................                  ",
"            ++++..............................                  ",
"             +++..............................                  ",
"              ++..............................                  ",
"               +..............................                  ",
"            ................++++++++................            ",
"            ................++++++++................            ",

"                                                                ",
"                                                                ",
"                                                                ",
"                                                                ",
"                                                                ",
"                                                                ",
"                                                                ",
"                                                                ",
"                                                                ",
"                                                                ",
"                                                 +              ",
"                                                +++             ",
"                                               +++++            ",
"                                              +++++++           ",
"                                             +++++++++          ",
"                                            +++++++++++         ",
"                                           +++++++++++++        ",
"                                          +++++++++++++++       ",
"                        ................ +++++++++++++++++      ",
"                        ................+++++++++++++++++       ",
"                        ................++++++++++++++++        ",
"                        ................+++++++++++++++         ",
"                ..............................++++++++          ",
"                ..............................+++++++           ",
"                ..............................++++++            ",
"                ..............................+++++             ",
"                ..............................++++              ",
"                ..............................+++               ",
"                ..............................++                ",
"                ..............................+                 ",
"            ................++++++++................            ",
"            ................++++++++................            ",

"                                                                ",
"                         ++++++++++++++                         ",
"                         ++++++++++++++                         ",
"                         ++++++++++++++                         ",
"                         ++++++++++++++                         ",
"                         ++++++++++++++                         ",
"                         ++++++++++++++                         ",
"                         ++++++++++++++                         ",
"                         ++++++++++++++                         ",
"                         ++++++++++++++                         ",
"                         ++++++++++++++                         ",
"                         ++++++++++++++                         ",
"                         ++++++++++++++                         ",
"                         ++++++++++++++                         ",
"                         ++++++++++++++                         ",
"                         ++++++++++++++                         ",
"                         ++++++++++++++                         ",
"                         ++++++++++++++                         ",
"                        ................                        ",
"                        ................                        ",
"                        ................                        ",
"                        ................                        ",
"                ..............................                  ",
"                ..............................                  ",
"                ..............................                  ",
"                ..............................                  ",
"                ..............................                  ",
"                ..............................                  ",
"                ..............................                  ",
"                ..............................                  ",
"            ................++++++++................            ",
"            ................++++++++................            ",
"            ..............++++++++++++..............            ",
"            ..............++++++++++++..............            ",
"            ..............++++++++++++..............            ",
"            ..............++++++++++++..............            ",
"            ..............++++++++++++..............            ",
"            ..............++++++++++++..............            ",
"            ..............++++++++++++..............            ",
"            ..............++++++++++++..............            ",
"            ................++++++++................            ",
"            ................++++++++................            ",
"            ........................................            ",
"            ........................................            ",
"            ........................................            ",
"            ........................................            ",
"            ........................................            ",
"            ........................................            ",
"            ........................................            ",
"            ........................................            ",
"            ........................................            ",
"            ........................................            ",
"            ........................................            ",
"            ........................................            ",
"            ........................................            ",
"            ........................................            ",
"            ........................................            ",
"            ........................................            ",
"            ........................................            ",
"            ........................................            ",
"            ........................................            ",
"            ........................................            ",
"            ........................................            ",
"            ........................................            ",

"                                                                ",
"             ++++++                                             ",
"             ++++++                                             ",
"             ++++++                                             ",
"             ++++++                                             ",
"             ++++++                                             ",
"             ++++++                                             ",
"             ++++++                                             ",
"             ++++++                                             ",
"            ........                                            ",
"            ........                                            ",
"        ...............                                         ",
"        ...............                                         ",
"        ...............                                         ",
"        ...............                                         ",
"      ........++++........                                      ",
"      .......++++++.......                                      ",
"      .......++++++.......                                      ",
"      .......++++++.......                                      ",
"      .......++++++.......                                      ",
"      ........++++........                                      ",
"      ....................                                      ",
"      ....................                                      ",
"      ....................                                      ",
"      ....................                                      ",
"      ....................                                      ",
"      ....................                                      ",
"      ....................                                      ",
"      ....................                                      ",
"      ....................                                      ",
"      ....................                                      ",
"      ....................                                      "};
