/* XPM */
static char * ltParatrooper_xpm[] = {
"288 32 4 1",
" 	c None",
".	c #FC54FC",
"+	c #54FCFC",
"@	c #FCFCFC",
"            ++++++++                                                                                                                                                                                                                                                                            ",
"          ++++++++++++                                                                                                                                                                                                                                                        +                 ",
"        ++++++++++++++++                                                                                                                                                              @@@@            @@@@                            @@@@            @@@@                                      ",
"      ++++++++++++++++++++                                                                                                                                                            @@@@            @@@@                            @@@@            @@@@                                      ",
"      ++++++++++++++++++++                                                                                                                                                            @@@@            @@@@                            @@@@            @@@@              +                 +     ",
"    ++++++++++++++++++++++++                                                                                                                                                          @@@@            @@@@                            @@@@            @@@@                                      ",
"    ++++++++++++++++++++++++                                                                                                                                                        ++++++++        ++++++++                        ++++++++        ++++++++                                    ",
"    ++++++++++++++++++++++++                                                                                                                                                        ++++++++        ++++++++                        ++++++++        ++++++++                                    ",
"    ++++++++++++++++++++++++                                                                                                                                                          ++++            ++++                            ++++            ++++                     @                ",
"    ..                    ..                                                                                                                                                          ++++            ++++                            ++++            ++++                                      ",
"      ..                ..                                                                                                                                                            ++++            ++++                            ++++            ++++                                      ",
"      ..                ..                                                                                                                                                            ++++            ++++                            ++++            ++++                  +          +        ",
"      ..                ..                                                                                                                                                          ++    ++        ++    ++                        ++    ++        ++    ++                                    ",
"        ..            ..                                                                                                                                                            ++    ++        ++    ++                        ++    ++        ++    ++                                    ",
"        ..            ..                                                                                                                                                            ++    ++        ++    ++                        ++    ++        ++    ++                       @            ",
"        ..            ..                                                                                                                                                            ++    ++        ++    ++                        ++    ++        ++    ++                 +                  ",
"            ..    ..                                                                                                                                                                                                                                                                            ",
"            ..    ..                                                                                                                                                                                                                                                                            ",
"              @@@@                             @@@@                                   @@@@            @@@@                            @@@@            @@@@            @@@@            @@@@            @@@@            @@@@            @@@@            @@@@                            +         ",
"              @@@@                             @@@@                                   @@@@            @@@@                            @@@@            @@@@            @@@@            @@@@            @@@@            @@@@            @@@@            @@@@             @        +               ",
"              @@@@                             @@@@                                   @@@@            @@@@                            @@@@            @@@@            @@@@            @@@@            @@@@            @@@@            @@@@            @@@@                                 +    ",
"              @@@@                             @@@@                                   @@@@            @@@@                            @@@@            @@@@            @@@@            @@@@            @@@@            @@@@            @@@@            @@@@                                      ",
"            ++++++++                         ++++++++                               ++++++++        ++++++++                        ++++++++        ++++++++        ++++++++        ++++++++        ++++++++        ++++++++        ++++++++        ++++++++                            +       ",
"            ++++++++                         ++++++++                               ++++++++        ++++++++                        ++++++++        ++++++++        ++++++++        ++++++++        ++++++++        ++++++++        ++++++++        ++++++++              +                     ",
"              ++++                             ++++                                   ++++            ++++                            ++++            ++++            ++++            ++++            ++++            ++++            ++++            ++++                                      ",
"              ++++                             ++++                                   ++++            ++++                            ++++            ++++            ++++            ++++            ++++            ++++            ++++            ++++                         +            ",
"              ++++                             ++++                                   ++++            ++++                            ++++            ++++            ++++            ++++            ++++            ++++            ++++            ++++                                      ",
"              ++++                             ++++                                   ++++            ++++                            ++++            ++++            ++++            ++++            ++++            ++++            ++++            ++++                                      ",
"            ++    ++                         ++    ++                               ++    ++        ++    ++                        ++    ++        ++    ++        ++    ++        ++    ++        ++    ++        ++    ++        ++    ++        ++    ++                                    ",
"            ++    ++                         ++    ++                               ++    ++        ++    ++                        ++    ++        ++    ++        ++    ++        ++    ++        ++    ++        ++    ++        ++    ++        ++    ++                 +                  ",
"            ++    ++                         ++    ++                               ++    ++        ++    ++                        ++    ++        ++    ++        ++    ++        ++    ++        ++    ++        ++    ++        ++    ++        ++    ++                                    ",
"            ++    ++                         ++    ++                               ++    ++        ++    ++                        ++    ++        ++    ++        ++    ++        ++    ++        ++    ++        ++    ++        ++    ++        ++    ++                                    "};
