/* XPM */
static char *noname[] = {
"320 8 2 1",
"  c None",
". c #FFFFFF",
"...... . .... ............... .............. ........... ...... ...... ....... ........ .................... ..... ............ ...... .. ............... . ................... ..... .................... .................... ... .. . ....... ... ........................ . .......... ........... .........................",
"  .. . ........ ..  .. ....... ......... .  .......   .   .  . .............. ... ....... ... ... .. ........ ..  . ...  .    ...... .. .......... .. ..........  ........... ......... .........  . .  .. ........ ............. .. ... .  .   .   ..........  .  .. ..... ... .......  .. .  .. . .  ..........  .....  . ....",
"  ...     ... .. . ... ... . .... . .... . .. .  ... ...  .......... .  .......... ....   ... . . .    . ... ..   . . .  ..  . ....... .    . . ....... ..  ... .. .. .   ........ .   ....... . . ..........  ... ........ ....... .....  ..  ..... .........  ... . ......... . .. .  ...  .  ... .. .... ..... ..... .  .. ..",
"... .. .. ..  . . . .  . .. ...  ... . .  .. . .    ..   . . ... ... .  .. ..    .  ...  . ..   ...  .  .. .  ..  .. ... .... ... . ... ..  ..   ..  .  . . . . ..   ..    .   .. .... ...  ..  .. ..   .....  .. .. ..   . ..........    . ..... .  . ..  .... . .   ... ...   . ..  .  .   . .    .     .... .. . .  ..  . .  ",
".... .  . .........  .  .  .  .. ... ... ..   .   ..     .     . ...   .      . .. .  .. .  ..      .. .    ..     . ... . .    .   .. . ...   .  .  ........   . .. .  .       .. . .    .. ..  ...        .  .  .... . .      .   .....    . .   .....    . . .. . .  .       . .. .  ... ..  .....  .  .. .. .. .     .  .  .",
".     .  .....   .     . ..  .    .       .   .  . .      .... . .      .  . .   . . ..   .   .    .  .     .. .. ...       . ..   .    .. ..   .          .   .   .    ...... .      .. . .   .    ...    .  .    .    .       .  .  ..           .      .  .       .  ..  .         .       .   .  .   .     .            .. .",
"                .    .. .        . ..   .. .         .   . .            . .    .    .. ..    . .        .         . .     .    . .   . ..            .  ...  .         .    .   .  .      .    .        .      .  .     .        .             .. .       .        . .   .         .  .    .     .      .    . .     . .   .   .",
"          .                       .                                       .      ..                                           .                          .   .          .     ...     .     ..     .       .              .                      ..    .  .        .        .   .     .   .                  .  .             . "
};
