/* XPM */
static char * mfaCattle_xpm[] = {
"64 64 11 1",
" 	c None",
".	c #45283C",
"+	c #D9A066",
"@	c #CBDBFC",
"#	c #222034",
"$	c #DF7126",
"%	c #76428A",
"&	c #D77BBA",
"*	c #4B692F",
"=	c #9BADB7",
"-	c #847E87",
"                                                                ",
"                                                                ",
"                                                                ",
"                                                                ",
"                                                                ",
"                                                                ",
"                                                                ",
"                                                                ",
"                                                                ",
"        ....                            ....                    ",
"      ..++++...                       ..++++...                 ",
"     .+++++++++..        ..          .+++++++++..        ..     ",
"    .++++++++++++...  ...@@.        .++++++++++++...  ...@@.    ",
"    .+++++++++++++++..@+++.         .+++++++++++++++..@+++.     ",
"    .++++++++++++++++.@@++.         .++++++++++++++++.@@++.     ",
"    .++++++++++++++++++#++.         .++++++++++++++++++#++.     ",
"    .+++$$$$++++++++++++++.         .+++$$$$++++++++++++++.     ",
"     .+$$%$$$$$+++++$$$+++.          .+$$%$$$$$+++++$$$+++.     ",
"     .+$&&$..$$$$+$$$$.$++.          .+$&&$..$$$$+$$$$.$++.     ",
"     .+$.+$**...$+$..$..&&.          .+$.+$. ...$+$..$..&&.     ",
"     *+$*=-****.+$$.$.**..**         .+$.=-.   .+$$.$.  ..      ",
"     *=-*******.+$.$$.******         .=-...    .+$.$$.          ",
"      **     **.+$*+$******           ..       .+$.+$.          ",
"               *+$*=-*  ***                    .+$.=-.          ",
"               *=-***                          .=-...           ",
"                **                              ..              ",
"                                                                ",
"                                                                ",
"                                                                ",
"                                                                ",
"                                                                ",
"                                                                ",
"                                                                ",
"                                                                ",
"                                                                ",
"                                                                ",
"                                                                ",
"                                                                ",
"                                                                ",
"                                                                ",
"                                                                ",
"                                                                ",
"                                                                ",
"                                                                ",
"                                                                ",
"                                                                ",
"                                                                ",
"                                                                ",
"                                                                ",
"                                                                ",
"                                                                ",
"                                                                ",
"                                                                ",
"                                                                ",
"                                                                ",
"                                                                ",
"                                                                ",
"                                                                ",
"                                                                ",
"                                                                ",
"                                                                ",
"                                                                ",
"                                                                ",
"                                                                "};
