/* XPM */
static char * mfaPigs_xpm[] = {
"96 96 9 1",
" 	c None",
".	c #45283C",
"+	c #323C39",
"@	c #524B24",
"#	c #222034",
"$	c #76428A",
"%	c #D77BBA",
"&	c #D95763",
"*	c #000000",
"                                         .+++@+..##.++@@.                                       ",
"                                         .............+++                                       ",
"                                         ##...+++++......                                       ",
"                                         ...+++@@@+++....                                       ",
"                                        $......++.....###                                       ",
"                                        .................                                       ",
"$$$         $$$$$$$$       $$$$$$$$     +@@@+++..++++@@+.                   $$$$$$$$            ",
"...$$   $$$$........$$$$$$$........$$  $+++..........++++               $$$$........$$$         ",
"+....$$$.....................++++....$$..................              $...............$$       ",
"+++........##.+@+++..####.++++@@+++........##.+@+++..###.$             ....##.+@+++......$      ",
"....####......................++....####..................            ....................      ",
".........+@@@++....@@+++.................+@@@++....@@+++..            ...+@@@++....@@+++..      ",
"#.++++..++++.....+++.....++@+..##.++++..++++.....+++.....+            ..++++.....+++.....+      ",
".............##......##.....++...............##......##...            .......##......##...      ",
"..++++....+++....++@..............++++....+++....++@.....              ...+++....++@.....       ",
"++@@+..++..........+@++.+++....+++@@+..++..........+@++..              ++..........+@++..       ",
".............++..............................++..........              ......++..........       ",
"......###.++@@+++..+++...#####........##..++@@+++..+++...             ....++@@+++..+++...       ",
".++@@+...........................++@@+...................$            ...................$      ",
"....+++.+++.###....####....++++.....+++.+++.###....####...            ..+++.###....####...      ",
"++.............+++......++++@@++++.............+++......++            .........+++......++      ",
"......###...++++@@+++.........++......###...++++@@+++....             ###...++++@@+++....       ",
".+@@++..........+++..............+@@++..........+++......             ..........+++....         ",
"..++....++@++........###.....###..++....++@++........###.             ..++@++..........         ",
"...............###.............................###......               ........###....          ",
"     ...............++++............................++++                 ...  ......            ",
"       +++@@......++++........+++......+++@@......++++..                                        ",
"        ..+++++............+++@@@@@++.....+++++.........                                        ",
"        .......................++++.....................$                                       ",
"        ###.+++@@+++..###...............###.+++@@+++..###                                       ",
"         ......+++...............###...........+++.......                                       ",
"         ................................................                                       ",
"         .+++@+..##.++@@....++............+++@+..##.++@@.                                       ",
"         .............+++....+++@@@+..................+++                                       ",
"         ##...+++++.......##.....+++++...##...+++++......                                       ",
"         ...+++@@@+++.......................+++@@@+++....                                       ",
"         ......++.....###....++................++.....###$                                      ",
"        $..................++@@++..###....................$                                     ",
"        +@@@+++..++++@@+................+@@@+++..++++@@+....$$$$                                ",
"        +++..........++++...............+++..........+++........                                ",
"       $.....................++++............................+++                                ",
"       ....##.+@+++..####.++++@@+++........##.+@+++..####.++++@@                                ",
"      ........................++....####......................++                 ###            ",
"      ...+@@@++....@@+++.................+@@@++....@@+++........               ##%%%#           ",
"      ..++++.....+++.....++@+..##.++++..++++.....+++.....++@+..#             ##%%$$$%#          ",
"      .......##......##.....++...............##......##.....++..         ####%%%$$$%%%#         ",
"       ...+++....++@..............++++....+++....++@............        #&&%&&%$$%%%%%#         ",
"       ++..........+@++.+++....+++@@+..++..........+@++.+++....+         #%%%&%%%%&#&%#         ",
"       ......++..............................++.................        #%%*%%$%&###&%#         ",
"      ....++@@+++..+++...#####........###.++@@+++..+++...#####..        #%%%%$%##  #&%#         ",
"      ...........................++@@+..........................        #&&%#&%#    ##          ",
"      ..+++.###....####....++++.....+++.+++.###....####....++++.         ####&%#                ",
"      .........+++......++++@@++++.............+++......++++@@++             ##                 ",
"      ###...++++@@+++.........++......###...++++@@+++.........++                                ",
"      ..........+++..............+@@++..........+++.............                                ",
"      ..++@++........###.....###..++....++@++........###.....###                                ",
"       ........###.............................###..............                                ",
"       .............++++.            .......  .............                                     ",
"       +++@@......++++..                                                                        ",
"        ..+++++.........                                                                        ",
"        ................$                                                                       ",
"        ###.+++@@+++..###                                                                       ",
"         ......+++.......                                                                       ",
"         ................                                                                       ",
"                                                                                                ",
"                                                                                                ",
"                                                                                                ",
"                                                                                                ",
"                                                                                                ",
"                                                                                                ",
"                                                                                                ",
"                                                                                                ",
"                                                                                                ",
"                                                                                                ",
"                 ###                                                                            ",
"               ##%%%#                                                                           ",
"             ##%%$$$%#                                                                          ",
"         ####%%%$$$%%%#                                                                         ",
"        #&&%&&%$$%%%%%#                                                                         ",
"         #%%%&%%%%&#&%#                                                                         ",
"        #%%*%%$%&## &%                                                                          ",
"        #%%%%$%##                                                                               ",
"        #&&%#&%                                                                                 ",
"         ###                                                                                    ",
"                                                                                                ",
"                                                                                                ",
"                                                                                                ",
"                                                                                                ",
"                                                                                                ",
"                                                                                                ",
"                                                                                                ",
"                                                                                                ",
"                                                                                                ",
"                                                                                                ",
"                                                                                                ",
"                                                                                                "};
