/* XPM */
/*
    Copyright 2011 by Mark Weyer

    This program is free software; you can redistribute it and/or modify
    it under the terms of the GNU General Public License as published by
    the Free Software Foundation; either version 2 of the License, or
    (at your option) any later version.

    This program is distributed in the hope that it will be useful,
    but WITHOUT ANY WARRANTY; without even the implied warranty of
    MERCHANTABILITY or FITNESS FOR A PARTICULAR PURPOSE.  See the
    GNU General Public License for more details.

    You should have received a copy of the GNU General Public License
    along with this program; if not, write to the Free Software
    Foundation, Inc., 59 Temple Place, Suite 330, Boston, MA  02111-1307  USA
*/
static char *noname[]={
"96 96 7 1",
"  c None",
". c #107f10",
"| c #502010",
"# c #000000",
"A c #ff2040",
"B c #ffdf20",
"C c #2080ff",
"           #######                #...........................#           ########              ",
"         ##.......#####            #..........................#        ###........###..####     ",
"     ####..............####         #.........................#      ##..............##....##   ",
"  ###....##................###    ##..........................#     #..................#.....#  ",
"##............................####...........................#     #..........................# ",
".............................................................#     #..........................# ",
".............................................................#    #............................#",
"............................................................#     #............................#",
"............................................................#     #............................#",
"........................................................##.#      #............................#",
"..........................................................#       #...........................# ",
"...........................................................#       #.........................#  ",
"............................................................#      #........................#   ",
"............................................................#       #......................##   ",
".............................................................#     #.#....................#..#  ",
".............................................................#    #...#......................#  ",
".......................#####.................................#    #..........................#  ",
"....................###.....##..............................#    #..........................#   ",
"..................##..........#.............................#    #.........................#    ",
"...............................#...........................#     #.......................##     ",
"...........................................................#    #..........................#    ",
"..........................................................#     #...........................#   ",
"..........................................................#     #...........................#   ",
".........................................................#      #............................#  ",
"..................................#####.................#.#      #...........................#  ",
"..............................####.....##..................#     #..........#................#  ",
"............................##...........#..................#     #........#.................#  ",
"............................................................#      ##....##.................#   ",
".............................................................#       ####  ##.............##    ",
"#............................................................#        ||     ###.......###|     ",
" ###.................####....................................#        ||     || #######  ||     ",
"  #.................#....#....................................#                    ||           ",
"  #................#......#...................................#                                 ",
"  ##...............#.......#..................................#                                 ",
" #..#....................................................###..#                                 ",
"#....##.....................................................###                                 ",
"#.............................................................##                  .             ",
"#...............................................................                  .             ",
"#...............................................................       .          .         .   ",
" #..............................#####...........................       .                    .   ",
" #............................##.....##.........................       .   .            .   .   ",
" #...........................#.........##.......................           .            .       ",
"  #.........................#............##.....................           .     .      .       ",
"  #.............................................................                 .              ",
"   #..#.........................................................                 .              ",
"    ##..........................................................                                ",
"   #............................................................     .                      .   ",
"  #.............................................................     .       .          .   .   ",
" #..............................................................     .  .    .   .      .   .   ",
" #..............................................................        .    .   .   .  .       ",
" #..............................................................        .        .   .          ",
"  #.............................................................                     .          ",
"  #.............................................................                                ",
"   #............................................................                                ",
"  #.............................................................                     .          ",
" #..............................................................      .         .    .          ",
" #..............................................................      .         .    .  .       ",
"#...............................................................      .   .     .       .       ",
"#...........................................................#...          .         .   .       ",
"#.......................................#..................##...          .         .           ",
"#............................##........# ###.............##||##.                    .           ",
" #...........................# ##....##   ||####......###  ||  #                                ",
" #...........................#   ####     ||    ######                                          ",
"  #...........................#   ||              ||                                            ",
"                                                                                                ",
"                                                                                                ",
"                                                                                                ",
"                                                                                       CCC      ",
"                                                                                      CCCCC     ",
"                AAA                                                                   CCCCC     ",
"               AAAAA                                                                  CCCCC     ",
"               AAAAA                                                                   CCC      ",
"               AAAAA                                                                            ",
"                AAA                                                                             ",
"                                            BBB                                                 ",
"       AAA                                 BBBBB                       CCC                      ",
"      AAAAA                                BBBBB                      CCCCC                     ",
"      AAAAA                                BBBBB                      CCCCC                     ",
"      AAAAA                                 BBB                       CCCCC                     ",
"       AAA                                                             CCC                      ",
"                                                                                                ",
"                    AAA                             BBB                             CCC         ",
"                   AAAAA                           BBBBB                           CCCCC        ",
"                   AAAAA                           BBBBB                           CCCCC        ",
"                   AAAAA                 BBB       BBBBB                           CCCCC        ",
"                    AAA                 BBBBB       BBB                             CCC         ",
"                                        BBBBB                                                   ",
"                                        BBBBB                                                   ",
"                                         BBB                                                    ",
"                                                                                                ",
"                                                                                                ",
"                                                                                                ",
"                                                                                                ",
"                                                                                                ",
"                                                                                                ",
"                                                                                                "};
