/* XPM */
static char * mkaRhombusVerbind_xpm[] = {
"96 32 4 1",
" 	c None",
".	c #000000",
"+	c #E8E8E9",
"@	c #8F8F91",
"                                                                                                ",
"                                                                                                ",
"         ..                                          ..                  ..          ..         ",
"        .+@.                                        .+@.                .+@.        .+@.        ",
"        .+@.                                        .+@.                .+@.        .+@.        ",
"         .+@.                                      .+@.                  .+@.      .+@.         ",
"         .+@.                                      .+@.                  .+@.      .+@.         ",
"          .+@.                                    .+@.                    .+@.    .+@.          ",
"          .+@.                                    .+@.                    .+@.    .+@.          ",
"           .+@.                                  .+@.                      .+@.  .+@.           ",
"           .+@.                                  .+@.                      .+@.  .+@.           ",
"            .+@.                                .+@.                        .+@..+@.            ",
"            .+@.                                .+@.                        .+@..+@.            ",
"             .+@.                              .+@.                          .+@+@.             ",
"  ............+@..............    ..............+@............               .+@+@.             ",
" .++++++++++++++++++++++++++++.  .++++++++++++++++++++++++++++.               .+@.              ",
" .@@@@@@@@@@@@@+@@@@@@@@@@@@@@.  .@@@@@@@@@@@@@+@@@@@@@@@@@@@@.              @.+@.              ",
"  ..............+@............    ............+@..............               .+@+@.             ",
"               .+@.                          .+@.                            .+@+@.             ",
"                .+@.                        .+@.                            .+@..+@.            ",
"                .+@.                        .+@.                            .+@..+@.            ",
"                 .+@.                      .+@.                            .+@.  .+@.           ",
"                 .+@.                      .+@.                            .+@.  .+@.           ",
"                  .+@.                    .+@.                            .+@.    .+@.          ",
"                  .+@.                    .+@.                            .+@.    .+@.          ",
"                   .+@.                  .+@.                            .+@.      .+@.         ",
"                   .+@.                  .+@.                            .+@.      .+@.         ",
"                    .+@.                .+@.                            .+@.        .+@.        ",
"                    .+@.                .+@.                            .+@.        .+@.        ",
"                     ..                  ..                              ..          ..         ",
"                                                                                                ",
"                                                                                                "};
