/* XPM */
/*
    Copyright 2010,2014 by Mark Weyer

    This program is free software; you can redistribute it and/or modify
    it under the terms of the GNU General Public License as published by
    the Free Software Foundation; either version 2 of the License, or
    (at your option) any later version.

    This program is distributed in the hope that it will be useful,
    but WITHOUT ANY WARRANTY; without even the implied warranty of
    MERCHANTABILITY or FITNESS FOR A PARTICULAR PURPOSE.  See the
    GNU General Public License for more details.

    You should have received a copy of the GNU General Public License
    along with this program; if not, write to the Free Software
    Foundation, Inc., 59 Temple Place, Suite 330, Boston, MA  02111-1307  USA
*/
static char *noname[]={
"32 288 5 1",
"  c None",
"1 c #808082",
"2 c #808082",
"3 c #808082",
"# c #808082",
"                  11111         ",
"                1111111111      ",
"               11111111111###   ",
"              1111111111######  ",
"              11111111########  ",
"              111111##########  ",
"             111111##########   ",
"             1111############   ",
"             111############    ",
"            11##############    ",
"            1##############     ",
"           1###############     ",
"           ###############      ",
"          ###############       ",
"         ################       ",
"         ###############        ",
"        ###############         ",
"       ################         ",
"       ###############          ",
"      ###############           ",
"     ###############            ",
"     ##############             ",
"    ##############              ",
"    ############                ",
"   ############                 ",
"   ##########                   ",
"  ##########                    ",
"  ########                      ",
"  ######                        ",
"   ###                          ",
"                                ",
"                                ",
"                                ",
"                  111           ",
"                 11111111 ###   ",
"                11111111######  ",
"                111111########  ",
"               11111##########  ",
"               1111##########   ",
"              111############   ",
"              11############    ",
"             1##############    ",
"            1##############     ",
"            ###############     ",
"           ###############      ",
"          ###############       ",
"         ################       ",
"         ###############        ",
"        ###############         ",
"       ################         ",
"       ###############          ",
"      ###############           ",
"    2###############            ",
"   22##############             ",
"  22##############              ",
"  22############                ",
" 22############                 ",
" 22##########                   ",
"  ##########                    ",
"  ########2                     ",
"  ######22                      ",
"   ###22                        ",
"                                ",
"                                ",
"                                ",
"                                ",
"                    111   ###   ",
"                  111111######  ",
"                 11111########  ",
"                1111##########  ",
"                111##########   ",
"               11############   ",
"              11############    ",
"             1##############    ",
"             ##############     ",
"            ###############     ",
"           ###############      ",
"          ###############       ",
"         ################       ",
"         ###############        ",
"        ###############         ",
"       ################         ",
"      2###############          ",
"    22###############           ",
"   22###############            ",
"  222##############             ",
"  22##############              ",
" 222############                ",
" 22############                 ",
" 22##########                   ",
" 2##########                    ",
"  ########22                    ",
"  ######222                     ",
"   ###222                       ",
"                                ",
"                                ",
"                                ",
"                                ",
"                          ###   ",
"                        ######  ",
"                      ########  ",
"                    ##########  ",
"                   ##########   ",
"                 ############   ",
"                ############    ",
"              ##############    ",
"             ##############     ",
"            ###############     ",
"           ###############      ",
"          ###############       ",
"         ################       ",
"         ###############        ",
"        ###############         ",
"       ################         ",
"     22###############          ",
"   222###############           ",
"  222###############            ",
" 2222##############             ",
"2222##############              ",
"2222############                ",
"222############                 ",
"222##########                   ",
" 2##########2                   ",
" 2########222                   ",
"  ######2222                    ",
"   ###22222                     ",
"     2222                       ",
"                                ",
"                                ",
"                                ",
"                          ###   ",
"                        ######  ",
"                      ########  ",
"                    ##########  ",
"                   ##########   ",
"                 ############   ",
"                ############    ",
"              ##############    ",
"             ##############     ",
"            ###############     ",
"           ###############      ",
"          ###############       ",
"         ################       ",
"         ###############3       ",
"        ###############3        ",
"       ################3        ",
"       ###############3         ",
"      ###############33         ",
"    2###############33          ",
"  222##############33           ",
" 222##############33            ",
"2222############33              ",
"222############3                ",
"222##########                   ",
" 2##########                    ",
" 2########22                    ",
"  ######222                     ",
"   ###2222                      ",
"     222                        ",
"                                ",
"                                ",
"                                ",
"                          ###   ",
"                        ######  ",
"                      ########  ",
"                    ##########  ",
"                   ##########   ",
"                 ############   ",
"                ############    ",
"              ##############    ",
"             ##############     ",
"            ###############     ",
"           ###############      ",
"          ###############3      ",
"         ################3      ",
"         ###############3       ",
"        ###############33       ",
"       ################33       ",
"       ###############33        ",
"      ###############333        ",
"     ###############333         ",
"     ##############333          ",
"    ##############333           ",
"  22############3333            ",
" 22############333              ",
" 22##########33                 ",
" 2##########                    ",
"  ########                      ",
"  ######22                      ",
"   ###222                       ",
"     22                         ",
"                                ",
"                                ",
"                                ",
"                          ###   ",
"                        ######  ",
"                      ########  ",
"                    ##########  ",
"                   ##########   ",
"                 ############   ",
"                ############    ",
"              ##############    ",
"             ##############     ",
"            ###############     ",
"           ###############3     ",
"          ###############33     ",
"         ################3      ",
"         ###############33      ",
"        ###############333      ",
"       ################33       ",
"       ###############333       ",
"      ###############333        ",
"     ###############3333        ",
"     ##############3333         ",
"    ##############3333          ",
"    ############33333           ",
"   ############3333             ",
"   ##########333                ",
"  ##########3                   ",
"  ########                      ",
"  ######                        ",
"   ###                          ",
"                                ",
"                                ",
"                                ",
"                                ",
"                      1111###   ",
"                    1111######  ",
"                  1111########  ",
"                 111##########  ",
"                111##########   ",
"               11############   ",
"              11############    ",
"             1##############    ",
"             ##############     ",
"            ###############     ",
"           ###############      ",
"          ###############       ",
"         ################3      ",
"         ###############33      ",
"        ###############333      ",
"       ################33       ",
"       ###############33        ",
"      ###############333        ",
"     ###############333         ",
"     ##############3333         ",
"    ##############3333          ",
"    ############33333           ",
"   ############ 333             ",
"   ##########                   ",
"  ##########                    ",
"  ########                      ",
"  ######                        ",
"   ###                          ",
"                                ",
"                                ",
"                                ",
"                      1111      ",
"                   1111111###   ",
"                 1111111######  ",
"                111111########  ",
"               11111##########  ",
"              11111##########   ",
"              111############   ",
"             111############    ",
"             1##############    ",
"            1##############     ",
"           1###############     ",
"           ###############      ",
"          ###############       ",
"         ################       ",
"         ###############3       ",
"        ###############33       ",
"       ################3        ",
"       ###############33        ",
"      ###############33         ",
"     ###############333         ",
"     ##############333          ",
"    ##############333           ",
"    ############3333            ",
"   ############                 ",
"   ##########                   ",
"  ##########                    ",
"  ########                      ",
"  ######                        ",
"   ###                          ",
"                                ",
"                                "};
