/* XPM */
/*
    Copyright 2010 by Mark Weyer

    This program is free software; you can redistribute it and/or modify
    it under the terms of the GNU General Public License as published by
    the Free Software Foundation; either version 2 of the License, or
    (at your option) any later version.

    This program is distributed in the hope that it will be useful,
    but WITHOUT ANY WARRANTY; without even the implied warranty of
    MERCHANTABILITY or FITNESS FOR A PARTICULAR PURPOSE.  See the
    GNU General Public License for more details.

    You should have received a copy of the GNU General Public License
    along with this program; if not, write to the Free Software
    Foundation, Inc., 59 Temple Place, Suite 330, Boston, MA  02111-1307  USA
*/
static char *noname[]={
"32 480 8 1",
"  c None",
"1 c Background",
"2 c Background",
"3 c Background",
"4 c Background",
"5 c Background",
"6 c Background",
"# c Background",
"                                ",
"                                ",
"                                ",
"                                ",
"               ####             ",
"           ####1111###          ",
"         ##11111111111##        ",
"        #111111111111111#       ",
"       #11111111111111111#      ",
"       #111111111111111111#     ",
"      #1111111111111111111#     ",
"     #111111111111111111111#    ",
"     #111111111111111111111#    ",
"    #11111111111111111111111#   ",
"    #11111111111111111111111#   ",
"    #11111111111111111111111#   ",
"    #11111111111111111111111#   ",
"    #11111111111111111111111#   ",
"    #1111111111111111111111#    ",
"    #1111111111111111111111#    ",
"     #11111111111111111111#     ",
"     #11111111111111111111#     ",
"     #1111111111111111111#      ",
"      ##11111111111111111#      ",
"        ##11111111111111#       ",
"          ###111111111##        ",
"             ####111##          ",
"                 ###            ",
"                                ",
"                                ",
"                                ",
"                                ",
"                                ",
"                                ",
"                                ",
"                                ",
"          ###     ####          ",
"        ##222## ##3333##        ",
"       #2222222#33333333#       ",
"      #22222222#333333333#      ",
"      #22222222#333333333#      ",
"     #222222222#3333333333#     ",
"     #222222222#3333333333#     ",
"     #222222222#3333333333#     ",
"    #2222222222#33333333333#    ",
"    #2222222222#33333333333#    ",
"    #2222222222#33333333333#    ",
"    #2222222222#33333333333#    ",
"    #2222222222#33333333333#    ",
"    #2222222222#33333333333#    ",
"    #2222222222#33333333333#    ",
"     #222222222#33333333333#    ",
"     #222222222#3333333333#     ",
"     #222222222#3333333333#     ",
"      #22222222#3333333333#     ",
"      #22222222#333333333#      ",
"       #2222222#333333333#      ",
"        #222222#33333333#       ",
"         ##222# ##3333##        ",
"           ###    ####          ",
"                                ",
"                                ",
"                                ",
"                                ",
"                                ",
"                                ",
"                                ",
"                                ",
"                                ",
"                                ",
"         ####     #####         ",
"       ##2222## ##33333##       ",
"      #22222222#333333333#      ",
"     #222222222#3333333333#     ",
"    #2222222222#33333333333#    ",
"    #2222222222#33333333333#    ",
"   #22222222222#333333333333#   ",
"   #22222222222#333333333333#   ",
"   #22222222222#333333333333#   ",
"   #22222222222#333333333333#   ",
"   #22222222222#333333333333#   ",
"   #22222222222#333333333333#   ",
"   #22222222222#333333333333#   ",
"   #22222222222#333333333333#   ",
"    #2222222222#33333333333#    ",
"    #2222222222#33333333333#    ",
"     #222222222#3333333333#     ",
"      #22222222#333333333#      ",
"       ##2222## ##33333##       ",
"         ####     #####         ",
"                                ",
"                                ",
"                                ",
"                                ",
"                                ",
"                                ",
"                                ",
"                                ",
"                                ",
"                                ",
"                                ",
"                                ",
"                                ",
"                   ######       ",
"      ######     ##333333##     ",
"    ##222222##  #3333333333#    ",
"   #2222222222##333333333333#   ",
"  #222222222222#3333333333333#  ",
"  #222222222222#3333333333333#  ",
" #2222222222222#33333333333333# ",
" #2222222222222#33333333333333# ",
" #2222222222222#33333333333333# ",
" #2222222222222#33333333333333# ",
" #2222222222222#33333333333333# ",
" #2222222222222#33333333333333# ",
"  #222222222222#3333333333333#  ",
"  #222222222222#3333333333333#  ",
"   #2222222222##333333333333#   ",
"    ##222222##  #3333333333#    ",
"      ######     ##333333##     ",
"                   ######       ",
"                                ",
"                                ",
"                                ",
"                                ",
"                                ",
"                                ",
"                                ",
"                                ",
"                                ",
"                                ",
"                                ",
"                                ",
"                                ",
"                     #####      ",
"                   ##11111##    ",
"      ######     ##111111111#   ",
"    ##222222##  #111111111111#  ",
"   #2222222222##1111111111111#  ",
"  #222222222222#11111111111111# ",
"  #222222222222#11111111111111# ",
" #2222222222222#11111111111111# ",
" #2222222222222#1111111111111#  ",
" #2222222222222##############   ",
" #2222222222222#4444444444444#  ",
" #2222222222222#44444444444444# ",
" #2222222222222#44444444444444# ",
"  #222222222222#44444444444444# ",
"  #222222222222#44444444444444# ",
"   #2222222222##4444444444444#  ",
"    ##222222##  #444444444444#  ",
"      ######     ##444444444#   ",
"                   ##44444##    ",
"                     #####      ",
"                                ",
"                                ",
"                                ",
"                                ",
"                                ",
"                                ",
"                                ",
"                                ",
"                                ",
"                                ",
"                  #######       ",
"                ##1111111##     ",
"               #11111111111#    ",
"               #11111111111#    ",
"      ######  #1111111111111#   ",
"    ##222222###1111111111111#   ",
"   #2222222222#1111111111111#   ",
"  #22222222222#1111111111111#   ",
"  #22222222222#1111111111111#   ",
" #2222222222222#11111111111#    ",
" #2222222222222#11111111111#    ",
" #22222222222222###########     ",
" #2222222222222#44444444444#    ",
" #2222222222222#44444444444#    ",
" #222222222222#4444444444444#   ",
"  #22222222222#4444444444444#   ",
"  #22222222222#4444444444444#   ",
"   #222222222#44444444444444#   ",
"    ##222222##44444444444444#   ",
"      ######  #444444444444#    ",
"              #444444444444#    ",
"               #4444444444#     ",
"                ##444444##      ",
"                  ######        ",
"                                ",
"                                ",
"                                ",
"                                ",
"                                ",
"                                ",
"                                ",
"                                ",
"                  #######       ",
"                ##1111111##     ",
"               #11111111111#    ",
"     #####     #11111111111#    ",
"   ##33333### #1111111111111#   ",
"  #3333333333##1111111111111#   ",
"  #33333333333#1111111111111#   ",
" #333333333333#1111111111111#   ",
" #333333333333#1111111111111#   ",
" #3333333333333#11111111111#    ",
" #3333333333333#11111111111#    ",
"  #3333333333333###########     ",
"   #############44444444444#    ",
"  #555555555555#44444444444#    ",
"  #55555555555#4444444444444#   ",
" #555555555555#4444444444444#   ",
" #555555555555#4444444444444#   ",
" #55555555555#44444444444444#   ",
"  #555555555##44444444444444#   ",
"   ##5555###  #444444444444#    ",
"     ####     #444444444444#    ",
"               #4444444444#     ",
"                ##444444##      ",
"                  ######        ",
"                                ",
"                                ",
"                                ",
"                                ",
"                                ",
"                                ",
"                                ",
"                                ",
"                  #######       ",
"       #####    ##1111111##     ",
"     ##33333## #11111111111#    ",
"    #333333333##11111111111#    ",
"    #333333333#1111111111111#   ",
"   #3333333333#1111111111111#   ",
"   #3333333333#1111111111111#   ",
"   #3333333333#1111111111111#   ",
"   #33333333333#111111111111#   ",
"   #33333333333#11111111111#    ",
"    #3333333333#11111111111#    ",
"    #3333333333############     ",
"     ###########44444444444#    ",
"    #555555555#444444444444#    ",
"    #555555555#4444444444444#   ",
"   #5555555555#4444444444444#   ",
"   #5555555555#4444444444444#   ",
"   #555555555#44444444444444#   ",
"   #555555555#44444444444444#   ",
"    #55555555#4444444444444#    ",
"    #55555555##444444444444#    ",
"     ##5555##  #4444444444#     ",
"       ####     ##444444##      ",
"                  ######        ",
"                                ",
"                                ",
"                                ",
"                                ",
"                                ",
"                                ",
"                                ",
"                                ",
"                  #######       ",
"       #####    ##1111111##     ",
"     ##33333## #11111111111#    ",
"    #333333333##11111111111#    ",
"    #333333333#1111111111111#   ",
"   #3333333333#1111111111111#   ",
"   #3333333333#1111111111111#   ",
"   #3333333333#1111111111111#   ",
"   #33333333333#111111111111#   ",
"   #33333333333#11111111111#    ",
"    #3333333333#11111111111#    ",
"    #3333333333############     ",
"     ###########2222#666666#    ",
"    #555555555#22222#666666#    ",
"    #555555555#22222#6666666#   ",
"   #5555555555#222222#666666#   ",
"   #5555555555#222222#666666#   ",
"   #555555555#2222222#66666#    ",
"   #555555555#2222222#66666#    ",
"    #55555555#22222222#666#     ",
"    #55555555#22222222####      ",
"     ##5555## #2222222#         ",
"       ####    ##222##          ",
"                 ###            ",
"                                ",
"                                ",
"                                ",
"                                ",
"                                ",
"                                ",
"                                ",
"                                ",
"                  #######       ",
"          ####  ##1111111##     ",
"         #4444##11111111111#    ",
"        #44444##11111111111#    ",
"        #44444#1111111111111#   ",
"      ##444444#1111111111111#   ",
"     #66##4444#1111111111111#   ",
"    #66666##44#1111111111111#   ",
"    #6666666##4#111111111111#   ",
"    #666666666##11111111111#    ",
"    #6666666666#11111111111#    ",
"     #666666666############     ",
"     ###########2222#666666#    ",
"    #555555555#22222#666666#    ",
"    #555555555#22222#6666666#   ",
"   #5555555555#222222#666666#   ",
"   #5555555555#222222#666666#   ",
"   #555555555#2222222#66666#    ",
"   #555555555#2222222#66666#    ",
"    #55555555#22222222#666#     ",
"    #55555555#22222222####      ",
"     ##5555## #2222222#         ",
"       ####    ##222##          ",
"                 ###            ",
"                                ",
"                                ",
"                                ",
"                                ",
"                                ",
"                                ",
"                                ",
"                                ",
"                ###             ",
"          ######333#####        ",
"         #4444#33333#555##      ",
"        #44444#33333#55555#     ",
"        #44444#33333#555555#    ",
"      ##444444#3333#5555555#    ",
"     #66##4444#3333#55555555#   ",
"    #66666##44#3333#55555555#   ",
"    #6666666##4#333#55555555#   ",
"    #666666666##33#55555555#    ",
"    #6666666666#33#55555555#    ",
"     #666666666############     ",
"     ###########2222#666666#    ",
"    #555555555#22222#666666#    ",
"    #555555555#22222#6666666#   ",
"   #5555555555#222222#666666#   ",
"   #5555555555#222222#666666#   ",
"   #555555555#2222222#66666#    ",
"   #555555555#2222222#66666#    ",
"    #55555555#22222222#666#     ",
"    #55555555#22222222####      ",
"     ##5555## #2222222#         ",
"       ####    ##222##          ",
"                 ###            ",
"                                ",
"                                ",
"                                ",
"                                ",
"                                ",
"                                ",
"                                ",
"                                ",
"                ###             ",
"          ######333#####        ",
"         #4444#33333#555##      ",
"        #44444#33333#55555#     ",
"        #44444#33333#555555#    ",
"      ##444444#3333#5555555#    ",
"     #66##4444#3333#55555555#   ",
"    #66666##44#3333#55555555#   ",
"    #6666666##4#333#55555555#   ",
"    #666666666##33#55555555#    ",
"    #6666666666#33#55555555#    ",
"     #666666666############     ",
"    ############2222#666666#    ",
"    #111111111#22222#666666#    ",
"    #111111111#22222#6666666#   ",
"    #111111111#222222#666666#   ",
"     #111111###222222#666666#   ",
"     #1111##3#2222222#66666#    ",
"     #11##333#2222222#66666#    ",
"      ##33333#22222222#666#     ",
"        #3333#22222222####      ",
"         ##33##2222222#         ",
"           ### ##222##          ",
"                 ###            ",
"                                ",
"                                ",
"                                ",
"                                ",
"                                ",
"                                ",
"                                ",
"                                ",
"                ###             ",
"          ######333###          ",
"         #4444#33333#1##        ",
"        #44444#33333#111#       ",
"        #44444#33333#1111#      ",
"      ##444444#3333#111111#     ",
"     #66##4444#3333#111111#     ",
"    #66666##44#3333#1111111#    ",
"    #6666666##4#333#111111##    ",
"    #666666666##33#11111##44#   ",
"    #6666666666#33#111##4444#   ",
"     #666666666#######66#444#   ",
"    ############2222#6666###    ",
"    #111111111#22222#666666#    ",
"    #111111111#22222#6666666#   ",
"    #111111111#222222#666666#   ",
"     #111111###222222#666666#   ",
"     #1111##3#2222222#66666#    ",
"     #11##333#2222222#66666#    ",
"      ##33333#22222222#666#     ",
"        #3333#22222222####      ",
"         ##33##2222222#         ",
"           ### ##222##          ",
"                 ###            ",
"                                ",
"                                ",
"                                ",
"                                ",
"                                ",
"                                ",
"                                ",
"                                ",
"                ###             ",
"          ######111###          ",
"         #111111111111##        ",
"        #111111111111111#       ",
"        #1111111111111111#      ",
"      ##111111111111111111#     ",
"     #11111111111111111111#     ",
"    #1111111111111111111111#    ",
"    #1111111111111111111111#    ",
"    #11111111111111111111111#   ",
"    #11111111111111111111111#   ",
"     #1111111111111111111111#   ",
"    #1111111111111111111111#    ",
"    #1111111111111111111111#    ",
"    #11111111111111111111111#   ",
"    #11111111111111111111111#   ",
"     #1111111111111111111111#   ",
"     #111111111111111111111#    ",
"     #111111111111111111111#    ",
"      ##111111111111111111#     ",
"        ##1111111111111###      ",
"          ###111111111#         ",
"             ####111##          ",
"                 ###            ",
"                                ",
"                                ",
"                                ",
"                                ",
"                                ",
"                                ",
"                                ",
"                                ",
"               ####             ",
"           ####1111###          ",
"         ##11111111111##        ",
"        #111111111111111#       ",
"       #11111111111111111#      ",
"       #111111111111111111#     ",
"      #1111111111111111111#     ",
"     #111111111111111111111#    ",
"     #111111111111111111111#    ",
"    #11111111111111111111111#   ",
"    #11111111111111111111111#   ",
"    #11111111111111111111111#   ",
"    #1111111111111111111111#    ",
"    #1111111111111111111111#    ",
"    #11111111111111111111111#   ",
"    #11111111111111111111111#   ",
"     #1111111111111111111111#   ",
"     #111111111111111111111#    ",
"     #111111111111111111111#    ",
"      ##111111111111111111#     ",
"        ##1111111111111###      ",
"          ###111111111#         ",
"             ####111##          ",
"                 ###            ",
"                                ",
"                                ",
"                                ",
"                                "};
